<svg width="486" height="111" viewBox="0 0 486 111" fill="none" xmlns="http://www.w3.org/2000/svg">
<path d="M104.062 110.238H19.0189C15.5144 110.238 13.3274 107.602 13.3274 104.096V81.4479C13.3274 79.7457 13.6841 78.1147 14.8975 76.9216L57.5727 34.8214C60.058 32.3818 63.9573 32.3983 66.4222 34.8544L108.912 76.9546C110.107 78.1464 111.064 79.7622 111.064 81.4479V104.096C111.064 107.602 107.568 110.238 104.062 110.238ZM26.0204 97.5452H98.3705V84.0817L62.4798 48.2798L26.0204 84.1096V97.5452Z" fill="#1B8BD1"/>
<path d="M116.218 64.0587C114.597 64.0587 112.974 63.4418 111.736 62.2055L62.3924 12.9833C61.9799 12.572 61.2995 12.5682 60.8794 12.982L10.7953 62.2017C8.29481 64.6578 4.27747 64.6223 1.82011 62.123C-0.637259 59.6225 -0.601719 55.6039 1.8988 53.1478L51.9854 3.92556C57.3495 -1.33569 66.034 -1.30396 71.3537 3.9941L120.702 53.2201C123.183 55.6953 123.188 59.7139 120.713 62.1953C119.473 63.4367 117.846 64.0587 116.218 64.0587Z" fill="#59BFFF"/>
<path d="M180.936 39H190.027V78.2816H180.936V62.1761H163.091V78.2816H154V39H163.091V54.4882H180.936V39ZM213.091 78.7305C209.911 78.7305 207.058 78.0665 204.533 76.7384C202.008 75.4103 200.034 73.5678 198.613 71.2109C197.191 68.854 196.48 66.1791 196.48 63.1862C196.48 60.1934 197.191 57.5185 198.613 55.1616C200.034 52.8047 202.008 50.9622 204.533 49.6341C207.058 48.306 209.911 47.642 213.091 47.642C216.271 47.642 219.114 48.306 221.62 49.6341C224.127 50.9622 226.091 52.8047 227.513 55.1616C228.934 57.5185 229.645 60.1934 229.645 63.1862C229.645 66.1791 228.934 68.854 227.513 71.2109C226.091 73.5678 224.127 75.4103 221.62 76.7384C219.114 78.0665 216.271 78.7305 213.091 78.7305ZM213.091 71.5476C215.335 71.5476 217.178 70.79 218.618 69.2749C220.059 67.7598 220.779 65.7302 220.779 63.1862C220.779 60.6423 220.059 58.6127 218.618 57.0976C217.178 55.5825 215.335 54.8249 213.091 54.8249C210.846 54.8249 208.994 55.5825 207.535 57.0976C206.076 58.6127 205.347 60.6423 205.347 63.1862C205.347 65.7302 206.076 67.7598 207.535 69.2749C208.994 70.79 210.846 71.5476 213.091 71.5476ZM257.142 48.0909H265.896V78.2816H257.591V74.6901C256.431 75.9995 255.047 77.0003 253.439 77.6924C251.83 78.3845 250.09 78.7305 248.22 78.7305C244.254 78.7305 241.112 77.5895 238.792 75.3074C236.473 73.0254 235.313 69.6397 235.313 65.1503V48.0909H244.067V63.8596C244.067 68.7231 246.106 71.1548 250.184 71.1548C252.279 71.1548 253.962 70.4721 255.234 69.1065C256.506 67.741 257.142 65.7115 257.142 63.0179V48.0909ZM284.19 78.7305C281.684 78.7305 279.234 78.4219 276.839 77.8046C274.445 77.1873 272.537 76.4111 271.115 75.4758L274.033 69.1907C275.38 70.0512 277.008 70.7526 278.916 71.2951C280.823 71.8376 282.694 72.1088 284.527 72.1088C288.231 72.1088 290.083 71.1922 290.083 69.3591C290.083 68.4986 289.578 67.8813 288.568 67.5072C287.557 67.1331 286.005 66.8151 283.91 66.5532C281.441 66.1791 279.402 65.7489 277.793 65.2626C276.185 64.7762 274.791 63.9158 273.613 62.6812C272.434 61.4466 271.845 59.6883 271.845 57.4062C271.845 55.4983 272.397 53.8054 273.5 52.3277C274.604 50.85 276.213 49.6996 278.326 48.8765C280.44 48.0535 282.937 47.642 285.818 47.642C287.95 47.642 290.073 47.8758 292.187 48.3434C294.301 48.8111 296.05 49.4564 297.434 50.2794L294.516 56.5084C291.86 55.0119 288.96 54.2637 285.818 54.2637C283.947 54.2637 282.544 54.5256 281.609 55.0493C280.674 55.5731 280.206 56.2465 280.206 57.0695C280.206 58.0048 280.711 58.6595 281.721 59.0336C282.731 59.4077 284.34 59.7631 286.547 60.0998C289.017 60.5114 291.037 60.9509 292.608 61.4186C294.179 61.8862 295.545 62.7373 296.704 63.9719C297.864 65.2064 298.444 66.9274 298.444 69.1346C298.444 71.0052 297.883 72.67 296.761 74.129C295.638 75.588 294.002 76.7197 291.85 77.524C289.699 78.3284 287.146 78.7305 284.19 78.7305ZM333.405 63.2985C333.405 63.4107 333.349 64.1963 333.236 65.6554H310.397C310.808 67.5259 311.781 69.0037 313.315 70.0886C314.849 71.1735 316.757 71.716 319.039 71.716C320.61 71.716 322.004 71.4822 323.22 71.0145C324.435 70.5469 325.567 69.808 326.615 68.7979L331.272 73.8484C328.429 77.1032 324.276 78.7305 318.814 78.7305C315.41 78.7305 312.398 78.0665 309.78 76.7384C307.161 75.4103 305.141 73.5678 303.719 71.2109C302.297 68.854 301.587 66.1791 301.587 63.1862C301.587 60.2308 302.288 57.5652 303.691 55.1896C305.094 52.814 307.021 50.9622 309.471 49.6341C311.921 48.306 314.662 47.642 317.692 47.642C320.648 47.642 323.322 48.2779 325.717 49.5499C328.111 50.8219 329.991 52.6457 331.356 55.0213C332.722 57.3969 333.405 60.156 333.405 63.2985ZM317.748 54.2637C315.765 54.2637 314.101 54.8249 312.754 55.9472C311.407 57.0695 310.584 58.6034 310.285 60.5488H325.156C324.856 58.6408 324.033 57.1163 322.686 55.9753C321.34 54.8342 319.694 54.2637 317.748 54.2637ZM357.086 47.642C359.892 47.642 362.445 48.2873 364.746 49.578C367.047 50.8687 368.852 52.6831 370.161 55.0213C371.47 57.3595 372.125 60.0811 372.125 63.1862C372.125 66.2914 371.47 69.013 370.161 71.3512C368.852 73.6894 367.047 75.5038 364.746 76.7945C362.445 78.0852 359.892 78.7305 357.086 78.7305C353.233 78.7305 350.202 77.5147 347.995 75.083V89.1682H339.241V48.0909H347.602V51.5701C349.772 48.9513 352.933 47.642 357.086 47.642ZM355.571 71.5476C357.815 71.5476 359.658 70.79 361.098 69.2749C362.539 67.7598 363.259 65.7302 363.259 63.1862C363.259 60.6423 362.539 58.6127 361.098 57.0976C359.658 55.5825 357.815 54.8249 355.571 54.8249C353.326 54.8249 351.484 55.5825 350.043 57.0976C348.603 58.6127 347.883 60.6423 347.883 63.1862C347.883 65.7302 348.603 67.7598 350.043 69.2749C351.484 70.79 353.326 71.5476 355.571 71.5476ZM389.634 47.642C394.31 47.642 397.901 48.7549 400.408 50.9809C402.914 53.2068 404.168 56.5645 404.168 61.0538V78.2816H395.975V74.5218C394.329 77.3276 391.261 78.7305 386.772 78.7305C384.452 78.7305 382.441 78.3377 380.739 77.5521C379.037 76.7665 377.737 75.6815 376.839 74.2973C375.941 72.9131 375.492 71.3419 375.492 69.5835C375.492 66.7777 376.549 64.5705 378.663 62.9618C380.776 61.3531 384.041 60.5488 388.455 60.5488H395.414C395.414 58.6408 394.834 57.1724 393.674 56.1436C392.514 55.1148 390.775 54.6004 388.455 54.6004C386.846 54.6004 385.266 54.8529 383.713 55.358C382.161 55.863 380.842 56.5458 379.757 57.4062L376.615 51.2895C378.261 50.1298 380.234 49.2319 382.535 48.5959C384.836 47.9599 387.202 47.642 389.634 47.642ZM388.96 72.8383C390.457 72.8383 391.785 72.4923 392.944 71.8001C394.104 71.108 394.927 70.0886 395.414 68.7418V65.6554H389.409C385.818 65.6554 384.022 66.8338 384.022 69.1907C384.022 70.3131 384.461 71.2016 385.341 71.8563C386.22 72.511 387.426 72.8383 388.96 72.8383ZM420.442 52.0752C421.489 50.6161 422.901 49.5125 424.678 48.7643C426.455 48.0161 428.504 47.642 430.823 47.642V55.7227C429.85 55.6479 429.196 55.6105 428.859 55.6105C426.353 55.6105 424.388 56.312 422.967 57.7149C421.545 59.1178 420.834 61.2222 420.834 64.028V78.2816H412.08V48.0909H420.442V52.0752ZM454.224 70.6498L456.581 76.8226C455.72 77.4586 454.663 77.9356 453.41 78.2536C452.157 78.5715 450.838 78.7305 449.454 78.7305C445.862 78.7305 443.085 77.814 441.121 75.9808C439.156 74.1477 438.174 71.4541 438.174 67.9V55.4983H433.517V48.7643H438.174V41.413H446.929V48.7643H454.448V55.4983H446.929V67.7878C446.929 69.0598 447.256 70.0418 447.911 70.7339C448.565 71.426 449.491 71.7721 450.688 71.7721C452.073 71.7721 453.251 71.398 454.224 70.6498ZM471.676 78.7305C469.169 78.7305 466.719 78.4219 464.325 77.8046C461.93 77.1873 460.022 76.4111 458.601 75.4758L461.519 69.1907C462.866 70.0512 464.493 70.7526 466.401 71.2951C468.309 71.8376 470.18 72.1088 472.013 72.1088C475.716 72.1088 477.568 71.1922 477.568 69.3591C477.568 68.4986 477.063 67.8813 476.053 67.5072C475.043 67.1331 473.49 66.8151 471.395 66.5532C468.926 66.1791 466.887 65.7489 465.279 65.2626C463.67 64.7762 462.276 63.9158 461.098 62.6812C459.92 61.4466 459.33 59.6883 459.33 57.4062C459.33 55.4983 459.882 53.8054 460.986 52.3277C462.089 50.85 463.698 49.6996 465.812 48.8765C467.926 48.0535 470.423 47.642 473.303 47.642C475.436 47.642 477.559 47.8758 479.673 48.3434C481.786 48.8111 483.535 49.4564 484.92 50.2794L482.001 56.5084C479.345 55.0119 476.446 54.2637 473.303 54.2637C471.433 54.2637 470.03 54.5256 469.095 55.0493C468.159 55.5731 467.692 56.2465 467.692 57.0695C467.692 58.0048 468.197 58.6595 469.207 59.0336C470.217 59.4077 471.826 59.7631 474.033 60.0998C476.502 60.5114 478.522 60.9509 480.094 61.4186C481.665 61.8862 483.03 62.7373 484.19 63.9719C485.35 65.2064 485.93 66.9274 485.93 69.1346C485.93 71.0052 485.368 72.67 484.246 74.129C483.124 75.588 481.487 76.7197 479.336 77.524C477.185 78.3284 474.631 78.7305 471.676 78.7305Z" fill="#6D6E71"/>
</svg>
