<svg width="123" height="111" viewBox="0 0 123 111" fill="none" xmlns="http://www.w3.org/2000/svg">
<path d="M104.062 110.238H19.0189C15.5144 110.238 13.3274 107.602 13.3274 104.096V81.4479C13.3274 79.7457 13.6841 78.1147 14.8975 76.9216L57.5727 34.8214C60.058 32.3818 63.9573 32.3983 66.4222 34.8544L108.912 76.9546C110.107 78.1464 111.064 79.7622 111.064 81.4479V104.096C111.064 107.602 107.568 110.238 104.062 110.238ZM26.0204 97.5452H98.3705V84.0817L62.4798 48.2798L26.0204 84.1096V97.5452Z" fill="#1B8BD1"/>
<path d="M116.218 64.0587C114.597 64.0587 112.974 63.4418 111.736 62.2055L62.3924 12.9833C61.9799 12.572 61.2995 12.5682 60.8794 12.982L10.7953 62.2017C8.29481 64.6578 4.27747 64.6223 1.82011 62.123C-0.637259 59.6225 -0.601719 55.6039 1.8988 53.1478L51.9854 3.92556C57.3495 -1.33569 66.034 -1.30396 71.3537 3.9941L120.702 53.2201C123.183 55.6953 123.188 59.7139 120.713 62.1953C119.473 63.4367 117.846 64.0587 116.218 64.0587Z" fill="#59BFFF"/>
</svg>
